<svg id="Layer_1" data-name="Layer 1" xmlns="http://www.w3.org/2000/svg" viewBox="0 0 1920 1080"><defs><style>.cls-1{fill:#ffe8ae;}.cls-2,.cls-5,.cls-6,.cls-7,.cls-8{fill:none;stroke:#000;stroke-miterlimit:10;}.cls-2{stroke-linecap:round;stroke-width:1.5px;}.cls-3{fill:#f0bc5e;}.cls-4{fill:#fff1ce;}.cls-5{stroke-width:1.25px;}.cls-6{stroke-width:2.55px;}.cls-8{stroke-width:2px;}</style></defs><title>login-background</title><path class="cls-1" d="M1090,0a58.74,58.74,0,0,0-26,19c-10.62,13.87-11.55,28.76-12,38-.2,4.13-.51,16.71,7,39,4.8,14.23,16.07,42.16,42,71,13.17,14.65,21.3,23.69,36,31,23.65,11.77,46.36,10.13,62,9,23.77-1.71,42.78-8.32,62-15,15.32-5.32,28.62-11.18,51-16a91.61,91.61,0,0,1,31-2c7.06.81,15.3,1.85,24,7,4,2.39,11.09,7.4,20,22a134.55,134.55,0,0,1,15,35c5.81,21.09,14.24,35.72,31,65,28.82,50.33,75,77.33,95,89,31.61,18.47,58.49,26.22,82,33,47,13.54,83.74,15.53,96,16,21.21.81,41,1.55,67-4,16.64-3.55,44.81-9.86,73-31,15.89-11.91,25.34-23.7,36-37a303.38,303.38,0,0,0,38-61l1,772-721-1q6.49-37,13-74a188.71,188.71,0,0,0-14-74c-16.69-40.38-44.19-65.43-58-78-9-8.24-19.36-16.16-40-32-17.86-13.71-27-17.46-42-31a265.67,265.67,0,0,1-24.5-25.5c-14.27-16.89-21.41-25.33-27-39-3.28-8-10.68-26.78-6-49,1.59-7.54,4.08-12.8,9-23a290.3,290.3,0,0,1,25-42c18.76-27.28,27.81-53.32,35-74a343.69,343.69,0,0,0,16-66c2.47-18.29,5.39-39.92,2-67-1.08-8.66-6.5-47.42-33-89-25.38-39.83-56.86-61.47-74-73-38-25.59-70-38-70-38-11.14-4.33-20.61-7.22-33-15-20.44-12.83-37.25-35.52-39-38a170.39,170.39,0,0,1-23-48c-5.5-18.12-2.14-17.67-8-37-4.68-15.44-10.22-33-25-49-8.44-9.12-29-21-23-18S1090,0,1090,0Z"/><path class="cls-2" d="M1420,362h29s16-48,60-48,64,35,64,35,21-11,42-5,24,18,24,18h31"/><path class="cls-3" d="M807,211c2.11-7.27,21-45.4,60-48,25.16-1.68,49.76,12.06,64,35,0,0,21-11,42-5,9.1,2.6,19.48,8,23.17,17.32,4.82,12.1-4,19.64-15.17,21.68-9.9,1.82-20.3,1.75-30.33,2-15.5.39-31,.41-46.53.33-26.13-.12-52.24-.82-78.36-1.22C818.35,233,810,229.22,807,222,807,222,805.11,217.5,807,211Z"/><path class="cls-2" d="M1318,804c3.08-11,14-17.69,24.47-20.4a42.42,42.42,0,0,1,16.55-1.21c1.88.29,16.08,4.1,16,4.61,0,0,2-10,15-25s24-22,40-24c14.07-1.76,28.86-2.07,42.46,2.55,14.11,4.79,22.1,13.9,30.54,25.45,0,0,13-1,22,0,18.06,2,36.81,21,37.53,39.43.35,9.16-6.51,12.05-14.53,13.57-12.26,2.33-101.07,1.78-221-1-1,0-5.37,0-8-3C1315.93,811.43,1317.38,806.22,1318,804Z"/><circle class="cls-3" cx="1755" cy="603" r="65"/><path class="cls-4" d="M1333,0c0,40.32-29.1,73-65,73s-65-32.68-65-73Z"/><path class="cls-5" d="M1807.71,645.91a1.45,1.45,0,0,0-1.21-.66h-10.06V629.44a1.44,1.44,0,0,0-2.75-.58l-11.5,25.87a1.44,1.44,0,0,0,1.32,2h10.06v15.81a1.44,1.44,0,0,0,1.13,1.41l.3,0a1.44,1.44,0,0,0,1.32-.85l11.5-25.87A1.48,1.48,0,0,0,1807.71,645.91Z"/><path class="cls-3" d="M1361.71,810.91a1.45,1.45,0,0,0-1.21-.66h-10.06V794.44a1.44,1.44,0,0,0-2.75-.58l-11.5,25.87a1.44,1.44,0,0,0,1.32,2h10.06v15.81a1.44,1.44,0,0,0,1.13,1.41l.3,0a1.44,1.44,0,0,0,1.32-.85l11.5-25.87A1.48,1.48,0,0,0,1361.71,810.91Z"/><path class="cls-6" d="M1186.93,188.61a2.91,2.91,0,0,0-2.46-1.34h-20.53V155a2.94,2.94,0,0,0-5.62-1.2l-23.47,52.81a2.94,2.94,0,0,0,2.68,4.13h20.54V243a2.93,2.93,0,0,0,2.32,2.87,3.26,3.26,0,0,0,.61.07,3,3,0,0,0,2.69-1.75l23.47-52.81A2.9,2.9,0,0,0,1186.93,188.61Z"/><circle class="cls-7" cx="1862.5" cy="556.5" r="6"/><circle class="cls-1" cx="1716.5" cy="244.5" r="6"/><circle class="cls-1" cx="141" cy="266" r="6"/><circle class="cls-1" cx="936" cy="795" r="6"/><circle class="cls-3" cx="271" cy="919" r="6"/><circle class="cls-3" cx="741" cy="80" r="6"/><circle class="cls-8" cx="1808" cy="487" r="12"/><circle class="cls-8" cx="948" cy="853" r="12"/><circle class="cls-8" cx="153" cy="211" r="12"/><path class="cls-3" d="M1039,1080a381.21,381.21,0,0,1,58-61c39.09-32.9,74.53-49.2,83-53,14.11-6.32,36.65-16.25,68-22,46.87-8.59,84.12-2.46,104,1,44.92,7.81,81,24,92,29,12.1,5.51,17.75,8.87,33,15,13.62,5.47,36,14.32,66,20a318.62,318.62,0,0,0,165-13c63.18-23,101.76-61.43,119-79,39.18-39.91,59.08-79.71,70-102a426.44,426.44,0,0,0,23-57l1,322Z"/></svg>