<svg id="Layer_1" data-name="Layer 1" xmlns="http://www.w3.org/2000/svg" viewBox="0 0 176 163"><defs><style>.cls-1{fill:#f0bc5e;}.cls-2{font-size:21px;font-family:SourceSansPro-Semibold, Source Sans Pro;font-weight:700;}</style></defs><title>logo</title><path class="cls-1" d="M47.2,81.72v-.08A41.75,41.75,0,0,1,86.56,42.25h.17L85.59,30.83A53.32,53.32,0,0,0,35.84,80.59Z"/><path class="cls-1" d="M91.28,42.2h.08a41.75,41.75,0,0,1,39.39,39.36v.17l11.42-1.14A53.32,53.32,0,0,0,92.41,30.84Z"/><path class="cls-1" d="M86.73,125.75h-.09A41.74,41.74,0,0,1,47.2,86.46v-.19L35.83,87.41a53.32,53.32,0,0,0,49.76,49.75Z"/><path class="cls-1" d="M130.8,86.28v.08a41.77,41.77,0,0,1-39.39,39.39h-.14l1.14,11.42a53.32,53.32,0,0,0,49.75-49.76Z"/><path d="M101.7,78.91a1.43,1.43,0,0,0-1.2-.66H90.44V62.44A1.43,1.43,0,0,0,89.3,61a1.41,1.41,0,0,0-1.61.82L76.19,87.73a1.4,1.4,0,0,0,.11,1.36,1.43,1.43,0,0,0,1.2.66H87.56v15.81A1.43,1.43,0,0,0,88.7,107a1.54,1.54,0,0,0,.3,0,1.43,1.43,0,0,0,1.31-.86l11.5-25.87A1.4,1.4,0,0,0,101.7,78.91Z"/><text class="cls-2" transform="translate(36.37 49.76) rotate(-53.92)">-</text><text class="cls-2" transform="matrix(0.75, -0.66, 0.66, 0.75, 43.96, 40.06)">S</text><text class="cls-2" transform="translate(56.15 30.21) rotate(-25.42)">H</text><text class="cls-2" transform="translate(72.92 23.26) rotate(-9.72)">A</text><text class="cls-2" transform="translate(88.44 21.22) rotate(5.37)">D</text><text class="cls-2" transform="translate(105.57 23.54) rotate(21.74)">O</text><text class="cls-2" transform="translate(121.87 30.72) rotate(39.1)">W</text><text class="cls-2" transform="matrix(0.59, 0.81, -0.81, 0.59, 136.69, 44.34)">-</text><text class="cls-2" transform="translate(148.25 66.02) rotate(78.7)">C</text><text class="cls-2" transform="translate(150.79 81.63) rotate(94.06)">O</text><text class="cls-2" transform="translate(148.6 99.55) rotate(109.4)">F</text><text class="cls-2" transform="matrix(-0.55, 0.83, -0.83, -0.55, 142.94, 113.59)">F</text><text class="cls-2" transform="translate(134.07 125.85) rotate(137.6)">E</text><text class="cls-2" transform="translate(122.03 135.91) rotate(152.05)">E</text><text class="cls-2" transform="translate(107.67 142.52) rotate(163.97)"> </text><text class="cls-2" transform="translate(98.21 145.01) rotate(176.33)">R</text><text class="cls-2" transform="matrix(-0.98, -0.21, 0.21, -0.98, 81.44, 145.43)">O</text><text class="cls-2" transform="translate(64.02 140.71) rotate(-152.07)">A</text><text class="cls-2" transform="translate(50.58 132.82) rotate(-137.69)">S</text><text class="cls-2" transform="translate(39.67 122.04) rotate(-123.7)">T</text><text class="cls-2" transform="translate(31.64 108.77) rotate(-109.25)">E</text><text class="cls-2" transform="translate(27.09 93.8) rotate(-94.21)">R</text><text class="cls-2" transform="translate(26.6 77.19) rotate(-79.51)">S</text></svg>