<svg id="Layer_1" data-name="Layer 1" xmlns="http://www.w3.org/2000/svg" viewBox="0 0 84 84"><defs><style>.cls-1{fill:#f0bc5e;stroke:#f0bc5e;stroke-miterlimit:10;}</style></defs><title>password-icon</title><path class="cls-1" d="M62.74,33.07V25.8C62.74,15.43,53.44,7,42,7S21.26,15.43,21.26,25.8v7.27a9.38,9.38,0,0,0-7.78,9.23V67.63A9.38,9.38,0,0,0,22.85,77h38.3a9.38,9.38,0,0,0,9.37-9.37V42.3A9.38,9.38,0,0,0,62.74,33.07ZM23.85,25.8C23.85,16.86,32,9.59,42,9.59S60.15,16.86,60.15,25.8v7.13H23.85ZM67.93,67.63a6.79,6.79,0,0,1-6.78,6.78H22.85a6.79,6.79,0,0,1-6.78-6.78V42.3a6.79,6.79,0,0,1,6.78-6.78h38.3a6.79,6.79,0,0,1,6.78,6.78Z"/><path class="cls-1" d="M42,43.3a5.19,5.19,0,0,0-5.19,5.18v7.78a5.19,5.19,0,0,0,10.38,0V48.48A5.19,5.19,0,0,0,42,43.3Zm2.59,13a2.59,2.59,0,0,1-5.18,0V48.48a2.59,2.59,0,0,1,5.18,0Z"/></svg>