<svg id="Layer_1" data-name="Layer 1" xmlns="http://www.w3.org/2000/svg" viewBox="0 0 106 68"><defs><style>.cls-1{fill:#f0bc5e;}</style></defs><title>user-icon</title><path class="cls-1" d="M80.58,42.31A32.76,32.76,0,0,0,68.06,31.39a16.8,16.8,0,0,0,2.55-8.9,16.3,16.3,0,0,0-4.86-11.63,16.63,16.63,0,0,0-23.5,0,16.37,16.37,0,0,0-4.86,11.75,17,17,0,0,0,2.55,8.9A32,32,0,0,0,22,60.34,1.76,1.76,0,0,0,23.75,62h60.5A1.75,1.75,0,0,0,86,60.22,32.08,32.08,0,0,0,80.58,42.31ZM44.75,13.36A13,13,0,0,1,54,9.56a13.2,13.2,0,0,1,9.25,3.8,13,13,0,0,1,3.8,9.25,13.15,13.15,0,0,1-3.44,8.84c-.18.18-.3.36-.47.53a3,3,0,0,1-.48.42,3.16,3.16,0,0,1-.53.41c-.18.12-.36.3-.54.42l-.53.35a6.11,6.11,0,0,1-.59.36,1.88,1.88,0,0,1-.6.3,2.14,2.14,0,0,1-.65.29c-.18.06-.36.18-.59.24S58.21,35,58,35l-.65.18c-.24.06-.41.12-.65.17a3.45,3.45,0,0,1-.83.12c-.18,0-.36.06-.53.06a10.93,10.93,0,0,1-1.37.06,9.87,9.87,0,0,1-1.36-.06c-.18,0-.36-.06-.54-.06s-.53-.06-.83-.12-.41-.11-.65-.17L49.91,35c-.24-.06-.48-.18-.66-.24a2.24,2.24,0,0,1-.53-.24c-.24-.11-.41-.17-.65-.29s-.42-.18-.6-.3-.41-.24-.59-.36l-.53-.35a3.3,3.3,0,0,1-.54-.42c-.17-.12-.35-.29-.53-.41a2.84,2.84,0,0,1-.47-.42,3.34,3.34,0,0,1-.48-.53,12.92,12.92,0,0,1-3.44-8.84A13.52,13.52,0,0,1,44.75,13.36ZM54,58.44H25.58a28,28,0,0,1,4.81-14.12,28.69,28.69,0,0,1,11.86-10A19.65,19.65,0,0,0,45.69,37a10.65,10.65,0,0,0,1.31.65c.24.12.53.24.77.35h.06c.24.12.48.18.71.3.06,0,.06,0,.12.06.24.06.48.18.71.24.06,0,.12.06.18.06l.65.18c.06,0,.12,0,.18,0,.24.06.42.06.65.12a.36.36,0,0,1,.24.06,2.42,2.42,0,0,0,.65.06.36.36,0,0,1,.24.06c.24,0,.42.06.65.06h2.26c.24,0,.41-.06.65-.06A.36.36,0,0,0,56,39.1c.23,0,.41-.06.65-.06a.36.36,0,0,0,.24-.06c.23-.06.41-.06.65-.12.06,0,.12,0,.18,0,.24-.06.47-.12.65-.18a.22.22,0,0,0,.18-.06,3.3,3.3,0,0,0,.71-.24c.06,0,.06,0,.12-.06a3.59,3.59,0,0,0,.71-.3h.06c.24-.11.53-.23.77-.35A10,10,0,0,0,62.19,37a15.51,15.51,0,0,0,3.44-2.67A28.48,28.48,0,0,1,82.3,58.44Z"/></svg>